<svg width="209" height="193" viewBox="0 0 209 193" fill="none" xmlns="http://www.w3.org/2000/svg">
<g id="Group" opacity="0.9">
<path id="Vector" d="M208.32 67.6327C208.32 30.2492 177.786 0 140.688 0C127.275 0 114.719 3.99518 104.16 10.8441C93.6014 3.99518 81.0452 0 67.6328 0C30.2492 0 0 30.2492 0 67.6327C0 86.4672 7.705 103.304 19.9759 115.575L88.4648 184.349L88.7502 184.635C93.0307 189.2 99.0235 192.34 105.872 192.34C112.721 192.34 118.714 189.486 122.995 184.635L123.28 184.349L188.344 115.29C200.615 103.304 208.32 86.1818 208.32 67.6327ZM120.712 67.6327C120.712 69.9157 120.426 72.1987 120.141 74.4816C119.285 82.1866 116.431 89.3209 112.436 95.8844C112.151 96.7405 111.58 97.5966 111.009 98.1674C109.297 99.8796 107.014 101.306 104.16 101.306C101.306 101.306 98.7381 99.8796 97.0259 97.882C96.7405 97.3112 96.1698 97.0259 96.1698 96.4551C91.8892 89.8916 89.0355 82.7574 88.1794 74.767C87.894 72.484 87.6087 70.2011 87.6087 67.6327C87.6087 52.5081 93.8868 38.8103 104.16 29.3931C114.433 38.8103 120.712 52.5081 120.712 67.6327ZM150.105 134.409L126.704 159.237L112.436 174.361L112.151 174.647C110.438 176.359 108.155 177.786 105.587 177.786C103.019 177.786 100.45 176.644 99.0235 174.647L84.4696 159.807L59.6424 134.695L30.5346 105.587C20.832 95.8844 14.5539 82.472 14.5539 67.6327C14.5539 38.525 38.2396 14.5539 67.6328 14.5539C76.4792 14.5539 84.755 16.8368 92.1746 20.5467C80.4744 32.8176 73.0548 49.369 73.0548 67.6327C73.0548 81.0451 77.05 93.8868 83.8989 104.445C84.4696 105.302 84.755 105.872 85.3257 106.443C87.6087 109.582 90.4624 111.865 94.1722 113.577C97.3113 115.004 100.736 115.86 104.16 115.86C107.87 115.86 111.009 115.004 114.148 113.577C117.287 112.15 120.141 109.868 122.424 107.299C123.28 105.872 124.421 104.445 125.278 103.304C125.278 103.304 125.278 103.304 125.278 103.019C131.556 92.7453 135.266 80.7598 135.266 67.9181C135.266 49.6544 128.131 33.1029 116.146 20.832C123.565 16.8368 131.841 14.8392 140.688 14.8392C169.795 14.8392 193.766 38.525 193.766 67.9181C193.766 82.7573 187.488 96.4551 177.5 105.872L150.105 134.409Z" fill="#B356C1"/>
</g>
</svg>
