<svg width="26" height="26" viewBox="0 0 26 26" fill="none" xmlns="http://www.w3.org/2000/svg">
<g id="noun_Email_247564 1">
<g id="Group">
<path id="Vector" fill-rule="evenodd" clip-rule="evenodd" d="M2.62619 6.392L2.75975 6.24174C3.24925 5.72986 3.9785 5.47375 4.94683 5.47375H21.542C22.4545 5.47375 23.1557 5.69647 23.6456 6.14157L23.6623 6.15826C23.7624 6.24742 23.8629 6.35293 23.9628 6.47547C23.9628 6.48683 23.9684 6.49784 23.9795 6.50886L23.9962 6.52556C24.3638 6.98201 24.5471 7.62745 24.5471 8.46221V17.9117C24.5361 19.9152 23.5344 20.9169 21.542 20.9169H4.94683C2.95442 20.9059 1.95837 19.9042 1.95837 17.9117V8.46221C1.95837 7.56067 2.18109 6.87048 2.62619 6.392ZM22.0929 7.10989C21.9259 7.06548 21.7423 7.04845 21.5423 7.05981H4.94683C4.82429 7.04879 4.70742 7.05413 4.59623 7.0765L13.1943 15.7914L22.0929 7.10989ZM3.54443 8.27856C3.53341 8.33433 3.53341 8.39543 3.54443 8.46221V17.9117C3.54443 18.858 4.01189 19.3308 4.94683 19.3308H21.542C22.4879 19.3308 22.9611 18.858 22.9611 17.9117V8.47891L13.7452 17.4777C13.5783 17.6336 13.3893 17.7114 13.1779 17.7114C12.9552 17.7004 12.7659 17.6223 12.6103 17.4777L3.54443 8.27856Z" fill="url(#paint0_linear_1_136)"/>
<path id="Vector_2" fill-rule="evenodd" clip-rule="evenodd" d="M2.62622 6.39171C2.64859 6.35832 2.67631 6.32493 2.7097 6.29154C2.72105 6.26917 2.73741 6.25247 2.75978 6.24146L2.62622 6.39171Z" fill="url(#paint1_linear_1_136)"/>
</g>
</g>
<defs>
<linearGradient id="paint0_linear_1_136" x1="13.2527" y1="5.47375" x2="13.2527" y2="20.9169" gradientUnits="userSpaceOnUse">
<stop stop-color="#B356C1"/>
<stop offset="1" stop-color="#9734A6"/>
</linearGradient>
<linearGradient id="paint1_linear_1_136" x1="2.693" y1="6.24146" x2="2.693" y2="6.39171" gradientUnits="userSpaceOnUse">
<stop stop-color="#B356C1"/>
<stop offset="1" stop-color="#9734A6"/>
</linearGradient>
</defs>
</svg>
