<svg width="22" height="22" viewBox="0 0 22 22" fill="none" xmlns="http://www.w3.org/2000/svg">
<g id="noun_Search_3184147 2" clip-path="url(#clip0_1_199)">
<g id="12">
<path id="Vector" d="M19.3462 18.3769L14.9462 13.9769C16.0574 12.6109 16.6021 10.8707 16.468 9.11492C16.3339 7.3592 15.5313 5.72185 14.2256 4.54045C12.9199 3.35906 11.2107 2.72369 9.45033 2.76535C7.68998 2.80702 6.01272 3.52253 4.76437 4.76436C3.52253 6.01272 2.80702 7.68998 2.76535 9.45032C2.72369 11.2107 3.35906 12.9199 4.54045 14.2256C5.72185 15.5313 7.3592 16.3339 9.11493 16.468C10.8707 16.6021 12.6109 16.0574 13.9769 14.9462L18.3769 19.3462C18.5084 19.4589 18.6776 19.5177 18.8506 19.511C19.0236 19.5044 19.1877 19.4326 19.3102 19.3102C19.4326 19.1877 19.5044 19.0236 19.511 18.8506C19.5177 18.6776 19.4589 18.5084 19.3462 18.3769ZM5.73374 13.5162C4.96419 12.7472 4.44001 11.7672 4.2275 10.7002C4.01499 9.6332 4.1237 8.52715 4.53987 7.52195C4.95605 6.51675 5.66099 5.65755 6.56554 5.05305C7.47009 4.44854 8.5336 4.12588 9.62155 4.12588C10.7095 4.12588 11.773 4.44854 12.6776 5.05305C13.5821 5.65755 14.2871 6.51675 14.7032 7.52195C15.1194 8.52715 15.2281 9.6332 15.0156 10.7002C14.8031 11.7672 14.2789 12.7472 13.5094 13.5162C13.001 14.0307 12.3956 14.4392 11.7282 14.7179C11.0609 14.9967 10.3448 15.1403 9.62155 15.1403C8.8983 15.1403 8.18224 14.9967 7.51487 14.7179C6.8475 14.4392 6.24209 14.0307 5.73374 13.5162Z" fill="#011334"/>
</g>
</g>
<defs>
<clipPath id="clip0_1_199">
<rect width="22" height="22" fill="white"/>
</clipPath>
</defs>
</svg>
